<?xml version="1.0" standalone="no"?>
<!DOCTYPE svg PUBLIC "-//W3C//DTD SVG 20010904//EN"
 "http://www.w3.org/TR/2001/REC-SVG-20010904/DTD/svg10.dtd">
<svg version="1.0" xmlns="http://www.w3.org/2000/svg"
 width="196.000000pt" height="219.000000pt" viewBox="0 0 196.000000 219.000000"
 preserveAspectRatio="xMidYMid meet">

<g transform="translate(0.000000,219.000000) scale(0.100000,-0.100000)"
fill="#01284c" stroke="none">
<path d="M320 2147 c-83 -44 -99 -82 -130 -309 -5 -43 -14 -112 -20 -153 -5
-41 -15 -110 -20 -152 -6 -43 -15 -109 -20 -148 -5 -38 -14 -106 -20 -150 -78
-572 -100 -753 -94 -779 14 -66 59 -123 116 -147 20 -8 28 -19 28 -36 0 -33
24 -76 59 -106 35 -29 88 -42 236 -56 61 -6 207 -20 325 -31 118 -12 303 -30
410 -40 354 -35 378 -36 430 -8 28 16 55 41 72 69 29 47 27 37 129 784 29 216
41 306 59 435 5 36 14 99 19 140 6 41 17 126 26 189 18 139 11 176 -42 220
-20 17 -49 33 -64 36 -20 5 -31 17 -43 50 -10 24 -33 58 -51 74 -56 48 -51 48
-505 81 -241 18 -406 30 -535 40 -307 23 -316 23 -365 -3z m400 -87 c63 -5
275 -21 470 -35 462 -34 437 -30 477 -70 41 -41 42 -56 8 -305 -14 -102 -30
-216 -35 -255 -5 -38 -14 -106 -20 -150 -6 -44 -15 -111 -20 -150 -5 -38 -11
-88 -15 -110 -23 -164 -67 -501 -72 -550 -7 -75 -36 -129 -80 -150 -29 -14
-49 -15 -151 -5 -64 6 -236 22 -382 35 -387 37 -473 45 -596 55 -129 11 -154
19 -183 56 -25 32 -26 58 -6 190 8 54 24 171 35 259 22 170 35 270 49 375 5
36 23 171 40 300 17 129 38 284 46 344 15 115 30 149 76 174 25 13 120 11 359
-8z m1105 -256 c23 -17 25 -77 6 -201 -6 -40 -16 -108 -22 -150 -6 -43 -15
-107 -20 -143 -5 -36 -16 -117 -24 -180 -33 -248 -116 -858 -125 -915 -13 -80
-48 -115 -118 -115 -26 0 -254 20 -507 44 -253 25 -512 50 -575 56 -63 6 -127
16 -142 21 -24 10 -58 47 -58 64 0 6 76 1 235 -15 50 -5 144 -14 210 -20 66
-6 161 -15 210 -20 50 -5 140 -14 200 -20 61 -6 154 -15 207 -21 74 -9 105 -8
135 1 85 28 135 89 152 186 10 62 14 85 61 439 5 39 14 102 19 140 6 39 15
106 20 150 6 44 17 125 25 180 7 55 26 198 42 318 16 121 33 217 39 217 5 0
19 -7 30 -16z"/>
<path d="M500 1874 c0 -5 -5 -49 -11 -97 -6 -49 -8 -95 -5 -102 9 -24 34 -6
40 31 9 46 33 44 54 -6 13 -30 23 -40 40 -40 26 0 27 2 6 42 -15 28 -14 31 5
52 29 31 28 81 -3 101 -27 18 -126 32 -126 19z m98 -53 c21 -13 10 -46 -16
-49 -37 -6 -50 4 -45 32 6 27 34 35 61 17z"/>
<path d="M716 1823 c-21 -128 1 -183 73 -183 58 0 86 34 95 111 9 92 8 99 -14
99 -19 0 -21 -4 -34 -103 -6 -45 -21 -67 -46 -67 -33 0 -40 23 -34 104 7 72 6
76 -13 76 -16 0 -22 -9 -27 -37z"/>
<path d="M951 1771 c-6 -39 -11 -85 -11 -104 0 -32 3 -35 38 -41 70 -11 92 -8
92 14 0 16 -7 20 -32 20 -51 0 -57 8 -47 65 14 86 11 115 -10 115 -15 0 -20
-13 -30 -69z"/>
<path d="M1146 1807 c-14 -68 -25 -182 -19 -188 7 -6 90 -13 131 -10 6 1 12 8
12 16 0 14 -18 21 -70 27 -17 2 -25 9 -25 23 0 17 7 20 40 20 29 0 41 4 43 17
2 12 -7 18 -36 23 -33 5 -39 10 -35 26 4 15 14 19 49 19 42 0 65 14 48 30 -5
4 -37 10 -71 14 -59 5 -63 4 -67 -17z"/>
<path d="M1369 1803 c-23 -6 -42 -47 -34 -72 3 -12 24 -30 45 -41 48 -24 54
-34 34 -51 -13 -11 -21 -10 -46 4 -47 27 -70 -6 -26 -37 50 -35 128 -7 128 47
0 31 -14 48 -52 66 -59 29 -36 56 30 36 18 -6 22 -4 22 14 0 31 -50 48 -101
34z"/>
<path d="M426 1445 c-9 -9 -16 -19 -16 -23 1 -29 27 -34 231 -53 691 -62 755
-66 772 -58 24 14 21 48 -5 59 -13 5 -160 20 -328 35 -296 25 -465 39 -581 50
-44 5 -60 2 -73 -10z"/>
<path d="M386 1195 c-8 -23 4 -45 28 -49 11 -3 57 -8 101 -11 231 -19 296 -24
359 -31 60 -6 71 -5 82 11 9 12 10 23 4 35 -8 14 -34 20 -142 29 -73 7 -171
16 -218 21 -130 15 -207 13 -214 -5z"/>
<path d="M1119 972 c-36 -31 -89 -77 -118 -101 -60 -51 -81 -86 -81 -135 0
-51 18 -83 59 -102 29 -14 43 -15 76 -6 22 6 42 9 44 7 10 -10 -13 -60 -44
-94 l-35 -38 68 -6 c37 -4 80 -7 95 -7 l28 0 -21 30 c-11 16 -24 53 -27 81
l-6 52 31 -23 c36 -27 101 -29 138 -6 61 41 68 123 17 198 -61 89 -145 203
-151 205 -4 1 -36 -24 -73 -55z"/>
<path d="M357 963 c-14 -13 -7 -52 11 -57 9 -3 95 -12 190 -21 135 -13 176
-14 188 -4 16 13 19 45 5 54 -11 6 -297 35 -352 35 -20 0 -39 -3 -42 -7z"/>
<path d="M320 709 c-20 -36 16 -59 91 -59 32 0 93 -5 135 -11 71 -11 78 -10
91 6 31 43 4 61 -109 69 -51 4 -116 9 -144 13 -47 5 -53 3 -64 -18z"/>
</g>
</svg>
